<svg width="22" height="22" fill="none" xmlns="http://www.w3.org/2000/svg"><path d="M13.7 3.438A6.888 6.888 0 0118.562 8.3m-5.574-2.205a4.132 4.132 0 012.917 2.917m-7.958 1.714a7.249 7.249 0 003.356 3.34.682.682 0 00.673-.05l2.152-1.435a.687.687 0 01.652-.06l4.025 1.725a.686.686 0 01.412.713 4.126 4.126 0 01-4.092 3.603A11.688 11.688 0 013.437 6.875 4.126 4.126 0 017.04 2.782a.685.685 0 01.713.413L9.48 7.223a.687.687 0 01-.057.648l-1.43 2.184a.682.682 0 00-.046.67v0z" stroke="#909E80" stroke-width="1.5" stroke-linecap="round" stroke-linejoin="round"/></svg>