<svg width="81" height="34" fill="none" xmlns="http://www.w3.org/2000/svg"><path fill-rule="evenodd" clip-rule="evenodd" d="M19.182 13a8.06 8.06 0 00-.1-5.98 8.128 8.128 0 00-1.781-2.638 8.225 8.225 0 00-2.667-1.763A8.293 8.293 0 0011.49 2H6.565v6.504h4.924c.058 0 .116.003.174.008h.09a1.385 1.385 0 01.971.398 1.358 1.358 0 01.402.96v.064a1.57 1.57 0 010 .4v.046c0 .352-.14.69-.387.943a1.38 1.38 0 01-.94.411H6.571V8.512H0l.002 13.004h6.572V28h8.207c2.18 0 4.27-.857 5.812-2.382A8.09 8.09 0 0023 19.868a8.06 8.06 0 00-1.017-3.92A8.164 8.164 0 0019.182 13zm-3.255 8.127c.247-.221.405-.524.443-.852h.002c.07-.267.07-.547 0-.815a1.354 1.354 0 00-.442-.852 1.38 1.38 0 00-.902-.351 1.666 1.666 0 00-.25-.018h-2.61a8.339 8.339 0 01-.675.027H6.57v3.23h8.207c.084 0 .167-.006.25-.019a1.38 1.38 0 00.9-.35z" fill="#A2B192"/><path d="M50.6 28.203h6.156l-3.072-5.975-3.083 5.974zm.276-11.569l-2.82-5.482-8.797 17.05h5.648l5.969-11.568zM42.403 0l2.858 5.558-11.683 22.645h-5.726L42.403 0z" fill="#A2B192"/><path d="M50.92 27.708l-2.839-5.52-5.893 11.422h5.687l3.045-5.902zm-8.437-16.635l2.838 5.52-8.78 17.017h-5.687l11.629-22.537zm-2.85-5.593L36.814 0 19.53 33.61h5.59L39.632 5.48z" fill="#F1EEE7"/><path d="M55.535 13.65V1.83h7.643v10.177L71.805 1.83h8.59L69.837 14.24 81 28.318h-8.93l-8.892-11.153v10.753L55.535 13.65z" fill="#A2B192"/></svg>