<svg width="45" height="45" fill="none" xmlns="http://www.w3.org/2000/svg"><path d="M25.2 14.938a6.887 6.887 0 014.862 4.862m-5.574-2.205a4.131 4.131 0 012.917 2.917m-7.958 1.714a7.248 7.248 0 003.356 3.341.681.681 0 00.673-.05l2.152-1.435a.689.689 0 01.652-.06l4.025 1.725a.686.686 0 01.412.713 4.126 4.126 0 01-4.092 3.602 11.688 11.688 0 01-11.688-11.687 4.126 4.126 0 013.603-4.092.686.686 0 01.713.412l1.727 4.029a.69.69 0 01-.057.647l-1.43 2.184a.682.682 0 00-.046.671v0z" stroke="#A2B192" stroke-width="1.5" stroke-linecap="round" stroke-linejoin="round"/><rect x=".5" y=".5" width="44" height="44" rx="22" stroke="#A2B192"/></svg>