<svg width="50" height="50" fill="none" xmlns="http://www.w3.org/2000/svg"><path d="M15.969 29.976c-1.305-2.042-1.762-4.456-1.285-6.789.477-2.333 1.854-4.424 3.873-5.88 2.02-1.457 4.542-2.178 7.094-2.03 2.552.148 4.958 1.156 6.766 2.835 1.808 1.68 2.894 3.913 3.054 6.283.16 2.37-.618 4.712-2.186 6.587-1.569 1.875-3.82 3.154-6.333 3.597-2.512.442-5.112.018-7.311-1.193h0l-3.627.962a.94.94 0 01-.46.005.895.895 0 01-.399-.212.802.802 0 01-.228-.37.757.757 0 01.006-.428l1.036-3.367h0z" stroke="#909E80" stroke-width="1.5" stroke-linecap="round" stroke-linejoin="round"/><path d="M20.25 26.5a1.25 1.25 0 100-2.5 1.25 1.25 0 000 2.5zm5 0a1.25 1.25 0 100-2.5 1.25 1.25 0 000 2.5zm5 0a1.25 1.25 0 100-2.5 1.25 1.25 0 000 2.5z" fill="#909E80"/><rect x=".5" y=".5" width="49" height="49" rx="24.5" stroke="#909E80"/></svg>