<svg width="108" height="108" fill="none" xmlns="http://www.w3.org/2000/svg"><g clip-path="url(#clip0_28_151)" fill="#909E80"><path d="M71.39 76.098l.422-1.404 6.936 2.085-.422 1.404-6.936-2.085zm-2.93-.88l.421-1.403 1.466.44-.422 1.404-1.465-.44zm-1.276-11.16V59.04h-1.465v5.208c-.49.067-.978.137-1.465.212v-8.426c.48.115.984.115 1.465 0v1.541h1.465v-1.9a3.14 3.14 0 003.514-.198c1.757 1.302 3.575.491 4.898-.987-.99-.85-2.223-1.922-2.752-3.132.528-.22 1.271-.924 1.722-1.284-1.369-.983-2.164-1.585-2.912-3.157.48-.205 1.25-.824 1.685-1.128-1.016-.942-2.155-2.053-2.81-3.279.407-.205 1.076-.868 1.43-1.168 0 0-1.883-1.135-3.639-4.648a1.78 1.78 0 00-.13-1.654l-3.25-5.226-3.948 6.243a1.993 1.993 0 00-.17 1.808s-1.098 2.16-2.91 3.477c.357.303 1.018.96 1.428 1.168 0 0-.784 1.57-2.806 3.28.438.308 1.198.92 1.682 1.127-.684 1.47-1.596 2.284-2.947 3.128.47.374 1.232 1.1 1.784 1.326-.651 1.459-1.538 2.094-2.676 3.118 1.334 1.483 3.127 2.289 4.896.988a3.14 3.14 0 003.516.196V64.7c-.452.137-16.672 2.665-17.58 2.814v-7.49a3.14 3.14 0 003.567-.167c1.755 1.3 3.574.492 4.897-.988-1.063-.677-2.752-3.131-2.752-3.131.528-.22 1.272-.924 1.722-1.284-1.368-.984-2.164-1.585-2.912-3.158.48-.204 1.25-.823 1.685-1.127-1.185-.601-2.81-3.279-2.81-3.279.407-.205 1.076-.868 1.43-1.168-1.816-1.104-5.754-8.166-7.023-10.093l-2.476 3.981 1.244.774 1.232-1.98c.877 1.265 3.663 6.323 4.829 7.236-1.24.596-1.978-.106-2.848-.92-1.099 1.47-3.054 1.158-3.963 0-.87.814-1.61 1.516-2.848.92.999-.829 2.054-2.825 2.76-3.91l-1.243-.773c-.554.828-1.613 2.806-2.354 3.454l-1.357 1.311c.357.302 1.018.96 1.428 1.168 0 0-.777 1.542-2.806 3.28.439.307 1.199.92 1.682 1.127-.684 1.47-1.596 2.283-2.947 3.127.47.375 1.232 1.102 1.785 1.327-.652 1.459-1.539 2.093-2.677 3.118l.878.81a3.135 3.135 0 004.018.178 3.14 3.14 0 003.465.226v8.125l-6.849 1.08H29v1.465c12.516-.215 25.773-.138 37.973 4.029l.421-1.403c-7.97-2.49-16.182-3.902-24.164-4.07C53.691 67.867 68.528 64.54 79 64.912v-1.465s-7.633-.126-11.816.612zM62.23 36.84l2.7-4.269c.02.172 2.377 3.474 2.025 3.589a.33.33 0 01-.299.175H65.16a2.39 2.39 0 00-2.012 1.093c-.388.59-1.294.012-.917-.588zm-.365 2.122a2.023 2.023 0 002.51-.737c.537-.825 2.09-.194 2.852-.516.674 1.051 1.578 2.746 2.537 3.55-1.24.598-1.858.07-2.847-.919-1.105 1.587-2.9 1.363-3.964 0-.87.814-1.61 1.516-2.847.92 0 0 1.157-1.223 1.758-2.298zm-1.063 3.971a3.313 3.313 0 002.151-.65 3.322 3.322 0 003.963 0c.635.471 1.393.69 2.151.65.558.925 1.184 1.909 1.962 2.66-1.374.64-2.567.128-3.672-.789-1.253 1.253-3.19 1.275-4.844 0-.839.839-2.301 1.43-3.673.787.85-.718 1.962-2.658 1.962-2.658zm-1.14 4.384c.982.097 1.99-.14 2.85-.708a4.387 4.387 0 004.845 0 4.374 4.374 0 002.852.707c.494 1.001 1.099 2.008 1.945 2.747-1.244.517-2.118-.035-2.994-.912-.99 1.378-2.946 1.581-4.225 0-.988 1.266-2.795 1.43-4.225 0-.907.824-1.752 1.428-2.993.912 1.123-.858 1.944-2.746 1.944-2.746zm-.39 6.183c-.806.766-1.487 1.543-2.679.967.861-.719 1.444-1.763 1.937-2.756a3.658 3.658 0 002.18-.669 3.665 3.665 0 004.225 0 3.665 3.665 0 004.225 0 3.646 3.646 0 002.198.669c.535.973 1.148 2.05 2.021 2.757-1.187.577-1.877-.203-2.68-.968-.613 1.309-2.693 1.621-3.81 0-.814 1.411-3.099 1.135-3.808 0-.859 1.405-2.617 1.555-3.808 0zm-20.945-5.303l.553-.884a3.313 3.313 0 002.15-.65 3.322 3.322 0 003.964 0c.635.471 1.392.69 2.15.65.558.924 1.184 1.908 1.962 2.66-1.374.64-2.567.128-3.672-.789-1.574 1.412-3.28 1.399-4.844 0-1.105.918-2.3 1.43-3.673.787a10.112 10.112 0 001.41-1.774zm-.588 3.5c.983.096 1.99-.14 2.851-.708a4.388 4.388 0 004.844 0 4.375 4.375 0 002.852.707c.494 1.001 1.1 2.008 1.945 2.747-1.244.517-2.086-.088-2.994-.912-.904 1.138-2.704 1.522-4.225 0-.9 1.138-2.632 1.593-4.225 0-.907.824-1.751 1.428-2.993.912 1.123-.893 1.945-2.746 1.945-2.746zm-.389 6.183c-.807.766-1.487 1.543-2.68.967.862-.718 1.445-1.763 1.937-2.757a3.657 3.657 0 002.18-.668 3.665 3.665 0 004.225 0 3.665 3.665 0 004.225 0 3.646 3.646 0 002.199.668c.534.973 1.148 2.052 2.021 2.757-1.188.578-1.878-.203-2.68-.967-.855 1.401-3.194 1.306-3.81 0-.675 1.169-2.957 1.169-3.809 0-.858 1.169-2.46 1.588-3.808 0zm4.93 2.521c.48.123.983.13 1.465.023v7.322l-1.465.23v-7.575zM30.563 72.228h1.464v1.465h-1.465v-1.465zm2.929 0h1.465v1.465h-1.465v-1.465z"/><path d="M73.043 66.357h1.465v1.465h-1.465v-1.465zm2.93 0h1.465v1.465h-1.465v-1.465z"/></g><rect x=".5" y=".5" width="107" height="107" rx="53.5" stroke="#909E80"/><defs><clipPath id="clip0_28_151"><path fill="#fff" transform="translate(29 29)" d="M0 0h50v50H0z"/></clipPath></defs></svg>