<svg width="108" height="108" fill="none" xmlns="http://www.w3.org/2000/svg"><g clip-path="url(#clip0_28_161)" fill="#909E80"><path d="M77.508 43.428c-.118-.44-.4-.809-.796-1.037l-1.437-.83a1.697 1.697 0 00-1.296-.17c-.441.118-.81.4-1.038.796l-.857 1.485a1.696 1.696 0 00-1.166-.104 1.7 1.7 0 00-1.037.797l-.054.093V38.13a3.666 3.666 0 00-3.662-3.662h-5.342a1.71 1.71 0 00-1.69-1.465h-2.49v-1.807A2.2 2.2 0 0054.446 29h-5.371a2.2 2.2 0 00-2.198 2.197v1.807h-2.49c-.859 0-1.57.638-1.69 1.465h-5.341a3.666 3.666 0 00-3.662 3.662v37.207A3.666 3.666 0 0037.356 79h22.856a.732.732 0 100-1.465H37.356a2.2 2.2 0 01-2.197-2.197V38.13a2.2 2.2 0 012.197-2.197h5.322v3.564c0 .942.767 1.709 1.71 1.709h14.745c.942 0 1.71-.767 1.71-1.709v-.683h4.638v13.17l-7.453 12.909a2.67 2.67 0 00-.353 1.533l.327 4.575a1.22 1.22 0 001.73 1.02l4.211-1.952a2.67 2.67 0 001.196-1.093l.342-.593v6.27H38.04v-35.84h1.953a.732.732 0 000-1.464h-2.198c-.673 0-1.22.547-1.22 1.22v36.328c0 .674.547 1.221 1.22 1.221h27.93c.673 0 1.22-.547 1.22-1.22v-9.052l1.417-2.452v11.943a2.2 2.2 0 01-2.197 2.197H63.63a.732.732 0 100 1.465h2.535a3.666 3.666 0 003.662-3.662v-14.48l6.179-10.703.976-1.69c.228-.396.289-.857.17-1.297a1.695 1.695 0 00-.672-.958l.857-1.485a1.69 1.69 0 00.17-1.297zm-3.298-.509a.244.244 0 01.333-.09l1.437.83a.245.245 0 01.089.334l-.854 1.478-1.859-1.073.854-1.479zm-3.06 2.178a.242.242 0 01.332-.09l4.142 2.392a.24.24 0 01.114.148.24.24 0 01-.025.185l-.61 1.056-4.563-2.635.61-1.056zm-22.808-13.9c0-.404.329-.732.733-.732h5.37c.405 0 .733.328.733.732v1.807h-6.836v-1.807zm11.035 8.301a.244.244 0 01-.244.244H44.387a.244.244 0 01-.244-.244v-4.785c0-.135.11-.244.244-.244h14.746c.135 0 .244.11.244.244v4.785zm6.348-2.148h-4.883v-1.416h5.323a2.2 2.2 0 012.197 2.197v8.864l-1.416 2.453V38.57c0-.673-.548-1.22-1.22-1.22zm4.082 10.072l4.564 2.635-8.98 15.552-4.563-2.634 8.98-15.553zM63.87 68.245c-.126.218-.314.39-.543.496l-3.89 1.804-.3-4.222a1.212 1.212 0 01.16-.697l.798-1.383 4.564 2.635-.789 1.367z"/><path d="M41.26 69.863a.73.73 0 001.034-.061l1.451-1.636 1.125 1.341a1.22 1.22 0 001.833.043l1.352-1.468 1.498 1.697a.732.732 0 101.098-.97l-1.678-1.9a1.222 1.222 0 00-.902-.412h-.012a1.22 1.22 0 00-.898.394l-1.347 1.462-1.128-1.344a1.221 1.221 0 00-1.848-.027l-1.64 1.847a.732.732 0 00.061 1.034zm21.609-24.701a.732.732 0 00-.733-.732h-20.8a.732.732 0 100 1.465h20.8a.732.732 0 00.733-.733zM41.433 49.8h8.691a.732.732 0 100-1.464h-8.69a.732.732 0 100 1.465zm16.26-.732a.732.732 0 00-.732-.732h-3.419a.732.732 0 100 1.465h3.419a.732.732 0 00.732-.733zm-16.26 4.639h7.031a.732.732 0 100-1.465h-7.03a.732.732 0 100 1.465zm13.477-1.465h-3.32a.732.732 0 100 1.465h3.32a.732.732 0 100-1.465zm-13.477 5.371h5.078a.732.732 0 100-1.465h-5.078a.732.732 0 100 1.465zm14.209-.733a.732.732 0 00-.732-.732h-5.274a.732.732 0 000 1.465h5.274a.732.732 0 00.732-.732zm-14.209 4.64h5.078a.732.732 0 100-1.465h-5.078a.732.732 0 100 1.465z"/></g><rect x=".5" y=".5" width="107" height="107" rx="53.5" stroke="#909E80"/><defs><clipPath id="clip0_28_161"><path fill="#fff" transform="translate(30.666 29)" d="M0 0h46.667v50H0z"/></clipPath></defs></svg>