<svg width="108" height="108" fill="none" xmlns="http://www.w3.org/2000/svg"><g clip-path="url(#clip0_28_173)" fill="#909E80"><path d="M53.48 56.054c-1.25-1.17-3.245-1.106-4.447.144-1.203 1.25-1.166 3.219.083 4.39 1.25 1.17 3.244 1.105 4.447-.144 1.203-1.25 1.165-3.22-.084-4.39zm-3.273 3.4a1.54 1.54 0 01-.042-2.195c.602-.625 1.599-.657 2.224-.072a1.54 1.54 0 01.041 2.195 1.59 1.59 0 01-2.223.072zm-1.304-9.841c1.25 1.171 3.244 1.106 4.447-.144 1.203-1.25 1.165-3.219-.084-4.39-1.25-1.17-3.244-1.105-4.447.145-1.203 1.25-1.165 3.219.084 4.39zm3.272-3.4a1.54 1.54 0 01.042 2.195c-.601.625-1.599.657-2.223.072a1.54 1.54 0 01-.042-2.195c.601-.625 1.599-.657 2.223-.072z"/><path d="M73.392 53.731c.572-.594.37-1.946.37-1.946L71.03 41.137c3.556-3.217 3.985-8.004 1.428-10.4-3.555-3.332-10.386-.442-12.154 4.978l-8.058-.622a2.393 2.393 0 00-1.915.73L30.134 56.812c-.902.937-.874 2.414.063 3.292L44.92 73.9c.83.777 2.096.828 3.002.18l4.531 3.33c1.036.762 2.519.54 3.304-.493L73.392 53.73zm-38.308.175l15.855 14.86-1.09 1.132L33.993 55.04l1.09-1.134zM53.446 68.4l4.384 3.222-.95 1.25-4.532-3.331 1.098-1.141zm18.655-15.553L58.78 70.371l-4.236-3.114 13.907-14.452c.5-.52.733-1.22.64-1.925l-1.55-11.729.71-.028a.767.767 0 01.782.576l3.203 12.486c.058.23.009.47-.136.661zm-.734-20.976c1.826 1.71 1.46 5.04-.784 7.522-.316-1.23-1.31-1.862-2.372-1.82l-.927.037a2.296 2.296 0 00-2.005-1.51l-3.368-.26c1.635-4.215 6.875-6.388 9.456-3.97zM52.102 36.64l7.866.607c-.182 1.577.163 3.087 1.062 4.245-.377.392-.318.867-.023 1.143a.794.794 0 001.111-.036l1.09-1.133a.769.769 0 00-.02-1.097.792.792 0 00-1.047-.024c-.557-.823-.758-1.87-.622-2.978l3.616.279c.369.028.66.301.707.663.15 1.128 1.529 11.564 1.69 12.792a.775.775 0 01-.212.642L52.03 67.632 36.174 52.773l15.29-15.888a.798.798 0 01.638-.244zm-6.091 36.127L31.288 58.97a.77.77 0 01-.021-1.097l1.636-1.7 15.855 14.859-1.636 1.7a.795.795 0 01-1.111.036zm7.392 3.393l-4.35-3.197 2.197-2.283 4.68 3.44-1.425 1.876a.797.797 0 01-1.102.164z"/><path d="M41.752 53.688a.778.778 0 00.56.21l17.787-.576a.794.794 0 00.771-.802.769.769 0 00-.8-.75l-17.787.576c-.703.022-1.03.874-.53 1.342z"/></g><rect x=".5" y=".5" width="107" height="107" rx="53.5" stroke="#909E80"/><defs><clipPath id="clip0_28_173"><path fill="#fff" transform="translate(29 29)" d="M0 0h50v50H0z"/></clipPath></defs></svg>